<?xml version="1.0" encoding="UTF-8"?>
<svg width="300px" height="300px" viewBox="0 0 110 110" version="1.1" 
    xmlns="http://www.w3.org/2000/svg" 
    xmlns:xlink="http://www.w3.org/1999/xlink">
    <!-- Generator: Sketch 45.2 (43514) - http://www.bohemiancoding.com/sketch -->
    <title>Page 1 Copy</title>
    <desc>Created with Sketch.</desc>
    <defs>
        <polygon id="path-1" points="0.249658145 0.370420175 17.0967211 0.370420175 17.0967211 20.032254 0.249658145 20.032254 0.249658145 0.370420175"/>
    </defs>
    <g id="Symbols" stroke="none" stroke-width="1" fill="none" fill-rule="evenodd">
        <g id="Page-1-Copy">
            <g id="Group-8" transform="translate(7.526316, 0.204766)">
                <path d="M19.9446789,31.8171949 C23.1561,28.0238392 22.9482579,24.6279375 19.2997316,21.5794485 L10.2507842,13.9858349 L7.82904737,16.8450875 L16.2932579,23.9170069 C18.6628895,25.896224 19.2238895,27.7368211 17.4841526,29.7931132 C15.8544158,31.7176876 13.9711,31.5152219 11.5638368,29.5037944 L3.10020526,22.431875 L0.553415789,25.440101 L9.61915263,33.0141582 C13.3053105,36.0948577 16.6226789,35.7422683 19.9446789,31.8171949" id="Fill-1" fill="#FEFEFE"/>
                <path d="M25.1290368,8.07780567 C25.1290368,8.07780567 26.7240368,7.3680254 27.5907211,7.02463899 C29.0294053,6.45520425 30.0836684,6.24756189 30.9642474,6.5305537 C31.7354053,6.80319215 32.3276684,7.35767204 32.6912474,8.2653165 C33.1821947,9.48988879 32.8794053,10.4498752 32.3178263,11.093509 C31.6456684,11.8585072 30.4350895,12.3376377 28.7920368,12.9875985 L27.3539316,13.5570333 L25.1290368,8.07780567 Z M31.0053526,22.467249 L28.4406158,16.2023165 L31.7967737,14.8742106 C31.8876684,14.8373987 31.9930368,14.7695267 32.1209842,14.6930268 L37.7408263,19.8018343 L41.7361421,18.2200711 L34.8883526,12.6246558 C36.4156158,11.1533285 37.0530368,8.85143165 36.2616158,6.87854159 C35.2710368,4.40523918 33.5069842,3.10646783 30.9277737,3.20712548 C29.5267211,3.21000142 28.0799316,3.62413577 26.3210895,4.32011157 C23.7407211,5.34106779 20.6271421,6.67780147 20.6271421,6.67780147 L27.5114053,23.8499976 L31.0053526,22.467249 Z" id="Fill-3" fill="#FEFEFE"/>
                <g id="Group-7" transform="translate(44.000000, 0.000000)">
                    <mask id="mask-2" fill="white">
                        <use xlink:href="#path-1"/>
                    </mask>
                    <g id="Clip-6"/>
                    <path d="M12.6781947,17.4945307 L12.6243526,19.6779391 L15.4519316,20.032254 L16.6642474,10.4887578 L9.66708947,9.61102309 L9.33882632,12.2022388 L12.8038263,12.612922 L12.7667737,12.9033912 C12.5166684,14.8659279 11.1266158,16.8319157 8.07961579,16.450567 C5.17793158,16.0858987 3.84114211,13.3583638 4.33614211,9.45917382 C4.85719474,5.36499556 6.92693158,3.11371518 9.72961579,3.46572938 C12.3151947,3.79070981 13.1940368,5.45069836 13.3903,6.63213165 L17.0967211,6.11331333 C16.7464579,4.00237848 15.1861947,1.07410347 10.1881421,0.447725255 C4.92145789,-0.213164156 1.09172105,3.41568815 0.376721053,9.03583648 C-0.357963158,14.8250897 2.10777368,18.8007795 7.39877368,19.46512 C10.2518263,19.8228861 12.0494579,18.3509836 12.6781947,17.4945307" id="Fill-5" fill="#FEFEFE" mask="url(#mask-2)"/>
                </g>
            </g>
            <polygon id="Fill-9" fill="#FEFEFE" points="82.0859947 26.1528722 75.2578895 21.5807139 77.9494158 17.6395353 83.7111 21.5536801 85.3819421 19.1079867 79.5918895 15.2352552 82.2052579 11.449377 88.8023632 15.924904 90.5548368 13.3589965 80.8123105 6.79209105 70.3941526 22.049491 80.3196263 28.7389112"/>
            <polygon id="Fill-10" fill="#FEFEFE" points="84.4603737 33.9150155 96.7745842 27.2244449 88.3121105 41.0898932 90.6018474 45.3560523 106.975637 36.6810879 105.240532 33.4496895 93.3055316 39.9107607 101.483163 26.4467926 99.0892158 21.9856453 82.7142684 30.66176"/>
            <polygon id="Fill-11" fill="#FEFEFE" points="106.258784 53.2642354 90.8987316 53.1773822 90.8836789 56.9615349 106.243732 56.974189 106.196258 62.395898 109.416363 62.4091273 109.475416 47.881064 106.255889 47.8684099"/>
            <polygon id="Fill-12" fill="#FEFEFE" points="92.6682105 67.4814205 93.9893684 63.6984182 90.3217368 62.4324324 89 66.2160099"/>
            <path d="M94.4670737,87.7539774 L86.2535474,84.1573355 L89.5124421,80.2771267 L94.4670737,87.7539774 Z M85.5443368,74.2531973 L87.8890737,77.7865687 L83.5133895,83.0000601 L79.5921789,81.3400715 L76.8375474,84.6215111 L95.1600737,91.7325431 L98.3251789,87.9627701 L88.1420737,71.1592686 L85.5443368,74.2531973 Z" id="Fill-13" fill="#FEFEFE"/>
            <path d="M68.2145895,87.729647 C65.5410105,88.7799377 64.6778,90.9288349 64.5411684,91.9808512 L63.5314842,90.0407468 L60.8793263,91.0806841 L64.4375368,100.028862 L70.9975895,97.4537517 L70.0313263,95.0230131 L66.7944316,96.3206341 L66.6861684,96.0479957 C65.9555368,94.2085489 66.2212737,91.8203741 69.0783789,90.6981851 C71.7976947,89.6312139 74.2912211,91.3826571 75.7455368,95.0385432 C77.2710632,98.8761882 76.5462211,101.838399 73.9178,102.870284 C71.4949053,103.821067 69.9213263,102.785732 69.1756421,101.844151 L66.1772737,104.070698 C67.5076947,105.75427 70.2918526,107.574735 74.9784316,105.736439 C79.9151158,103.79806 81.5153263,98.7858839 79.4218526,93.5177498 C77.2623789,88.090289 73.1744316,85.7832155 68.2145895,87.729647" id="Fill-14" fill="#FEFEFE"/>
            <polygon id="Fill-16" fill="#FEFEFE" points="44.7662368 93.151586 52.9681842 93.8786219 52.5276053 98.6187347 45.5796579 97.9584205 45.3058158 100.9005 52.2589737 101.511923 51.8108684 106.081781 43.8590263 105.328862 43.5712895 108.416463 55.2955526 109.490337 56.9993947 91.132681 45.0551316 90.0386761"/>
            <polygon id="Fill-17" fill="#FEFEFE" points="31.3739684 99.2220479 32.0797053 83.0236427 28.0062316 80.3777843 17.8538105 95.807165 20.9396 97.8111152 28.2731263 86.4437023 27.6241263 102.153774 31.8817053 104.919846 42.0358632 89.4898905 38.9292316 87.4721359"/>
            <path d="M22.6892947,70.4293568 C20.2878211,65.7260559 16.2959789,65.4660715 14.0137684,66.0142244 L15.0251895,69.6672345 C16.3961368,69.2761076 18.6708211,69.3612352 19.9282947,71.8213084 C21.2176105,74.3475279 20.0244,76.8662701 16.1900316,78.7988971 C12.4853474,80.6659528 9.38218947,80.0947925 8.16929474,77.7215726 C7.01371579,75.4576381 8.15713684,73.6492514 9.03192632,72.8255842 L6.50829474,70.0445569 C4.94571579,71.518185 3.18397895,74.7047188 5.42045263,79.0818889 C7.82192632,83.7840394 12.9832421,84.8786195 18.0681368,82.315588 C23.3052947,79.6743311 25.2922421,75.5243597 22.6892947,70.4293568" id="Fill-18" fill="#FEFEFE"/>
            <polygon id="Fill-20" fill="#FEFEFE" points="0.0474157895 51.46741 7.46546842 55.2389086 0.139468421 59.3537935 0.189836842 63.7004787 10.7811 57.2048964 18.6698368 57.1122913 18.6264158 53.3281387 10.7874684 53.4190181 -5.78947368e-05 47.41407"/>
            <polygon id="Fill-21" fill="#FEFEFE" points="15.7778789 45.6273678 19.5045632 46.7121697 20.6381421 42.8687728 16.9103 41.7845461"/>
            <animateTransform attributeType="xml" attributeName="transform" type="rotate" from="0 55 55" to="-360 55 55" dur="20s" repeatCount="indefinite"/>
        </g>
    </g>
</svg>